<svg width="582" height="138" viewBox="0 0 582 138" fill="none" xmlns="http://www.w3.org/2000/svg">
<path d="M2.15417 16.9113L66.6534 16.9113L66.6534 28.963L41.3224 28.963L41.3224 96.5868L27.3736 96.5868L27.3736 28.963L2.15417 28.963L2.15417 16.9113ZM169.064 16.9113L202.094 16.9113C208.195 16.9113 213.477 17.9528 217.94 20.0358C222.404 22.1188 226.049 24.983 228.876 28.6282C231.703 32.1991 233.786 36.4024 235.125 41.238C236.539 46.0735 237.245 51.2439 237.245 56.749C237.245 62.2541 236.539 67.4245 235.125 72.2601C233.786 77.0957 231.703 81.3361 228.876 84.9814C226.049 88.5523 222.404 91.3792 217.94 93.4622C213.477 95.5453 208.195 96.5868 202.094 96.5868L169.064 96.5868L169.064 16.9113ZM183.013 85.2046L196.738 85.2046C202.169 85.2046 206.595 84.4978 210.017 83.0843C213.514 81.5965 216.229 79.5878 218.163 77.0585C220.172 74.4547 221.511 71.4417 222.181 68.0196C222.925 64.5231 223.297 60.7663 223.297 56.749C223.297 52.7318 222.925 49.0121 222.181 45.59C221.511 42.0935 220.172 39.0805 218.163 36.5512C216.229 33.9474 213.514 31.9388 210.017 30.5253C206.595 29.0374 202.169 28.2935 196.738 28.2935L183.013 28.2935L183.013 85.2046ZM283.52 26.3964C279.279 26.3964 275.597 27.252 272.472 28.963C269.422 30.6741 266.93 32.9803 264.996 35.8816C263.061 38.7086 261.611 41.9447 260.644 45.59C259.751 49.2353 259.305 52.9549 259.305 56.749C259.305 60.5431 259.751 64.2628 260.644 67.9081C261.611 71.5533 263.061 74.8267 264.996 77.728C266.93 80.555 269.422 82.824 272.472 84.535C275.597 86.2461 279.279 87.1016 283.52 87.1016C287.76 87.1016 291.405 86.2461 294.456 84.535C297.58 82.824 300.109 80.555 302.044 77.728C303.978 74.8267 305.391 71.5533 306.284 67.908C307.251 64.2628 307.735 60.5431 307.735 56.749C307.735 52.9549 307.251 49.2353 306.284 45.59C305.391 41.9447 303.978 38.7086 302.044 35.8816C300.109 32.9803 297.58 30.6741 294.456 28.963C291.405 27.252 287.76 26.3964 283.52 26.3964ZM283.52 15.0142C289.471 15.0142 294.79 16.1301 299.477 18.3619C304.238 20.5937 308.256 23.6067 311.529 27.4007C314.802 31.1948 317.294 35.6212 319.005 40.68C320.791 45.7388 321.684 51.0951 321.684 56.749C321.684 62.4773 320.791 67.8709 319.005 72.9296C317.294 77.9884 314.802 82.4148 311.529 86.2089C308.256 90.0029 304.238 93.0159 299.477 95.2477C294.79 97.4051 289.471 98.4838 283.52 98.4838C277.568 98.4838 272.212 97.4051 267.451 95.2477C262.764 93.0159 258.784 90.0029 255.511 86.2089C252.237 82.4148 249.708 77.9884 247.922 72.9296C246.211 67.8709 245.356 62.4773 245.356 56.749C245.356 51.0951 246.211 45.7388 247.922 40.68C249.708 35.6212 252.237 31.1948 255.51 27.4008C258.784 23.6067 262.764 20.5937 267.451 18.3619C272.212 16.1301 277.568 15.0142 283.52 15.0142ZM386.75 16.9112L401.592 16.9112L432.279 96.5868L417.326 96.5868L409.85 75.4962L378.046 75.4962L370.57 96.5868L356.175 96.5868L386.75 16.9112ZM381.84 64.8951L406.167 64.8951L394.227 30.6369L393.892 30.6369L381.84 64.8951ZM439.867 16.9112L475.017 16.9112C480.671 16.9112 485.284 17.7296 488.855 19.3662C492.426 21.0029 495.178 23.0487 497.112 25.5037C499.047 27.9587 500.348 30.6369 501.018 33.5382C501.762 36.4396 502.134 39.1177 502.134 41.5727C502.134 44.0277 501.762 46.7059 501.018 49.6072C500.348 52.4342 499.047 55.0751 497.112 57.5301C495.178 59.9851 492.426 62.0309 488.855 63.6676C485.284 65.2299 480.671 66.011 475.017 66.011L453.815 66.011L453.815 96.5868L439.867 96.5868L439.867 16.9112ZM453.815 54.6288L474.236 54.6288C475.799 54.6288 477.398 54.4056 479.035 53.9592C480.671 53.5129 482.159 52.8061 483.498 51.839C484.912 50.7975 486.028 49.4584 486.846 47.8218C487.739 46.1107 488.185 43.9905 488.185 41.4611C488.185 38.8573 487.813 36.6999 487.069 34.9889C486.325 33.2778 485.321 31.9387 484.056 30.9716C482.792 29.9301 481.341 29.2234 479.704 28.8514C478.068 28.4794 476.319 28.2935 474.46 28.2935L453.815 28.2935L453.815 54.6288ZM514.296 16.9112L549.447 16.9112C555.101 16.9112 559.714 17.7296 563.285 19.3662C566.855 21.0029 569.608 23.0487 571.542 25.5037C573.476 27.9587 574.778 30.6368 575.448 33.5382C576.192 36.4395 576.564 39.1177 576.564 41.5727C576.564 44.0277 576.192 46.7059 575.448 49.6072C574.778 52.4342 573.476 55.0751 571.542 57.5301C569.608 59.9851 566.855 62.0309 563.285 63.6676C559.714 65.2299 555.101 66.011 549.447 66.011L528.245 66.011L528.245 96.5868L514.296 96.5868L514.296 16.9112ZM528.245 54.6288L548.666 54.6288C550.228 54.6288 551.828 54.4056 553.465 53.9592C555.101 53.5129 556.589 52.8061 557.928 51.839C559.342 50.7975 560.458 49.4584 561.276 47.8218C562.169 46.1107 562.615 43.9905 562.615 41.4611C562.615 38.8573 562.243 36.6999 561.499 34.9889C560.755 33.2778 559.751 31.9387 558.486 30.9716C557.221 29.9301 555.771 29.2234 554.134 28.8514C552.497 28.4794 550.749 28.2935 548.889 28.2935L528.245 28.2935L528.245 54.6288Z" fill="#FAFAFA"/>
<g filter="url(#filter0_d_222_3394)">
<path d="M79.9956 53.263C79.9956 41.179 79.9956 35.1369 82.3473 30.5214C84.416 26.4615 87.7168 23.1607 91.7767 21.0921C96.3922 18.7404 102.434 18.7404 114.518 18.7404H117.395C129.479 18.7404 135.521 18.7404 140.137 21.0921C144.197 23.1607 147.498 26.4615 149.566 30.5214C151.918 35.1369 151.918 41.179 151.918 53.263V56.1399C151.918 68.224 151.918 74.266 149.566 78.8815C147.498 82.9415 144.197 86.2423 140.137 88.3109C135.521 90.6626 129.479 90.6626 117.395 90.6626H114.518C102.434 90.6626 96.3922 90.6626 91.7767 88.3109C87.7168 86.2423 84.416 82.9415 82.3473 78.8815C79.9956 74.266 79.9956 68.224 79.9956 56.1399V53.263Z" fill="#FAFAFA"/>
<path d="M79.9956 53.263C79.9956 41.179 79.9956 35.1369 82.3473 30.5214C84.416 26.4615 87.7168 23.1607 91.7767 21.0921C96.3922 18.7404 102.434 18.7404 114.518 18.7404H117.395C129.479 18.7404 135.521 18.7404 140.137 21.0921C144.197 23.1607 147.498 26.4615 149.566 30.5214C151.918 35.1369 151.918 41.179 151.918 53.263V56.1399C151.918 68.224 151.918 74.266 149.566 78.8815C147.498 82.9415 144.197 86.2423 140.137 88.3109C135.521 90.6626 129.479 90.6626 117.395 90.6626H114.518C102.434 90.6626 96.3922 90.6626 91.7767 88.3109C87.7168 86.2423 84.416 82.9415 82.3473 78.8815C79.9956 74.266 79.9956 68.224 79.9956 56.1399V53.263Z" stroke="#FAFAFA" stroke-width="7.19223"/>
</g>
<path fill-rule="evenodd" clip-rule="evenodd" d="M140.075 37.7746C140.75 38.4489 141.128 39.3635 141.128 40.317C141.128 41.2706 140.75 42.1851 140.075 42.8595L111.306 71.6284C110.632 72.3025 109.718 72.6813 108.764 72.6813C107.81 72.6813 106.896 72.3025 106.222 71.6284L91.8371 57.2439C91.182 56.5657 90.8196 55.6573 90.8278 54.7144C90.836 53.7715 91.2142 52.8696 91.8809 52.2028C92.5477 51.5361 93.4496 51.1579 94.3925 51.1497C95.3354 51.1415 96.2438 51.504 96.922 52.159L108.764 64.001L134.99 37.7746C135.665 37.1004 136.579 36.7217 137.533 36.7217C138.486 36.7217 139.401 37.1004 140.075 37.7746Z" fill="#171717"/>
<defs>
<filter id="filter0_d_222_3394" x="47.6305" y="0.759834" width="136.652" height="136.652" filterUnits="userSpaceOnUse" color-interpolation-filters="sRGB">
<feFlood flood-opacity="0" result="BackgroundImageFix"/>
<feColorMatrix in="SourceAlpha" type="matrix" values="0 0 0 0 0 0 0 0 0 0 0 0 0 0 0 0 0 0 127 0" result="hardAlpha"/>
<feOffset dy="14.3845"/>
<feGaussianBlur stdDeviation="14.3845"/>
<feComposite in2="hardAlpha" operator="out"/>
<feColorMatrix type="matrix" values="0 0 0 0 0 0 0 0 0 0 0 0 0 0 0 0 0 0 0.04 0"/>
<feBlend mode="normal" in2="BackgroundImageFix" result="effect1_dropShadow_222_3394"/>
<feBlend mode="normal" in="SourceGraphic" in2="effect1_dropShadow_222_3394" result="shape"/>
</filter>
</defs>
</svg>
