<svg width="398" height="79" viewBox="0 0 398 79" fill="none" xmlns="http://www.w3.org/2000/svg">
<path d="M41.52 1.16V10.2H26.64V57H15.44V10.2H0.56V1.16H41.52ZM75.6119 57.56C70.3852 57.56 65.5852 56.3333 61.2119 53.88C56.8385 51.4267 53.3719 48.04 50.8119 43.72C48.2519 39.3467 46.9719 34.4133 46.9719 28.92C46.9719 23.48 48.2519 18.6 50.8119 14.28C53.3719 9.90666 56.8385 6.49333 61.2119 4.04C65.5852 1.58666 70.3852 0.36 75.6119 0.36C80.8919 0.36 85.6919 1.58666 90.0119 4.04C94.3852 6.49333 97.8252 9.90666 100.332 14.28C102.892 18.6 104.172 23.48 104.172 28.92C104.172 34.4133 102.892 39.3467 100.332 43.72C97.8252 48.04 94.3852 51.4267 90.0119 53.88C85.6385 56.3333 80.8385 57.56 75.6119 57.56ZM75.6119 47.56C78.9719 47.56 81.9319 46.8133 84.4919 45.32C87.0519 43.7733 89.0519 41.5867 90.4919 38.76C91.9319 35.9333 92.6519 32.6533 92.6519 28.92C92.6519 25.1867 91.9319 21.9333 90.4919 19.16C89.0519 16.3333 87.0519 14.1733 84.4919 12.68C81.9319 11.1867 78.9719 10.44 75.6119 10.44C72.2519 10.44 69.2652 11.1867 66.6519 12.68C64.0919 14.1733 62.0919 16.3333 60.6519 19.16C59.2119 21.9333 58.4919 25.1867 58.4919 28.92C58.4919 32.6533 59.2119 35.9333 60.6519 38.76C62.0919 41.5867 64.0919 43.7733 66.6519 45.32C69.2652 46.8133 72.2519 47.56 75.6119 47.56ZM132.024 1.16C137.891 1.16 143.038 2.30667 147.464 4.6C151.944 6.89333 155.384 10.1733 157.784 14.44C160.238 18.6533 161.464 23.56 161.464 29.16C161.464 34.76 160.238 39.6667 157.784 43.88C155.384 48.04 151.944 51.2667 147.464 53.56C143.038 55.8533 137.891 57 132.024 57H112.504V1.16H132.024ZM131.624 47.48C137.491 47.48 142.024 45.88 145.224 42.68C148.424 39.48 150.024 34.9733 150.024 29.16C150.024 23.3467 148.424 18.8133 145.224 15.56C142.024 12.2533 137.491 10.6 131.624 10.6H123.704V47.48H131.624ZM189.528 57.72C185.261 57.72 181.421 56.7867 178.008 54.92C174.595 53 171.901 50.3067 169.928 46.84C168.008 43.3733 167.048 39.3733 167.048 34.84C167.048 30.3067 168.035 26.3067 170.008 22.84C172.035 19.3733 174.781 16.7067 178.248 14.84C181.715 12.92 185.581 11.96 189.848 11.96C194.115 11.96 197.981 12.92 201.448 14.84C204.915 16.7067 207.635 19.3733 209.608 22.84C211.635 26.3067 212.648 30.3067 212.648 34.84C212.648 39.3733 211.608 43.3733 209.528 46.84C207.501 50.3067 204.728 53 201.208 54.92C197.741 56.7867 193.848 57.72 189.528 57.72ZM189.528 47.96C191.555 47.96 193.448 47.48 195.208 46.52C197.021 45.5067 198.461 44.0133 199.528 42.04C200.595 40.0667 201.128 37.6667 201.128 34.84C201.128 30.6267 200.008 27.4 197.768 25.16C195.581 22.8667 192.888 21.72 189.688 21.72C186.488 21.72 183.795 22.8667 181.608 25.16C179.475 27.4 178.408 30.6267 178.408 34.84C178.408 39.0533 179.448 42.3067 181.528 44.6C183.661 46.84 186.328 47.96 189.528 47.96ZM274.166 46.36H251.926L248.246 57H236.486L256.566 1.08H269.606L289.686 57H277.846L274.166 46.36ZM271.126 37.4L263.046 14.04L254.966 37.4H271.126ZM308.392 19.08C309.832 17.0533 311.805 15.3733 314.312 14.04C316.872 12.6533 319.779 11.96 323.032 11.96C326.819 11.96 330.232 12.8933 333.272 14.76C336.365 16.6267 338.792 19.2933 340.552 22.76C342.365 26.1733 343.272 30.1467 343.272 34.68C343.272 39.2133 342.365 43.24 340.552 46.76C338.792 50.2267 336.365 52.92 333.272 54.84C330.232 56.76 326.819 57.72 323.032 57.72C319.779 57.72 316.899 57.0533 314.392 55.72C311.939 54.3867 309.939 52.7067 308.392 50.68V78.12H297.192V12.68H308.392V19.08ZM331.832 34.68C331.832 32.0133 331.272 29.72 330.152 27.8C329.085 25.8267 327.645 24.3333 325.832 23.32C324.072 22.3067 322.152 21.8 320.072 21.8C318.045 21.8 316.125 22.3333 314.312 23.4C312.552 24.4133 311.112 25.9067 309.992 27.88C308.925 29.8533 308.392 32.1733 308.392 34.84C308.392 37.5067 308.925 39.8267 309.992 41.8C311.112 43.7733 312.552 45.2933 314.312 46.36C316.125 47.3733 318.045 47.88 320.072 47.88C322.152 47.88 324.072 47.3467 325.832 46.28C327.645 45.2133 329.085 43.6933 330.152 41.72C331.272 39.7467 331.832 37.4 331.832 34.68ZM362.611 19.08C364.051 17.0533 366.024 15.3733 368.531 14.04C371.091 12.6533 373.997 11.96 377.251 11.96C381.037 11.96 384.451 12.8933 387.491 14.76C390.584 16.6267 393.011 19.2933 394.771 22.76C396.584 26.1733 397.491 30.1467 397.491 34.68C397.491 39.2133 396.584 43.24 394.771 46.76C393.011 50.2267 390.584 52.92 387.491 54.84C384.451 56.76 381.037 57.72 377.251 57.72C373.997 57.72 371.117 57.0533 368.611 55.72C366.157 54.3867 364.157 52.7067 362.611 50.68V78.12H351.411V12.68H362.611V19.08ZM386.051 34.68C386.051 32.0133 385.491 29.72 384.371 27.8C383.304 25.8267 381.864 24.3333 380.051 23.32C378.291 22.3067 376.371 21.8 374.291 21.8C372.264 21.8 370.344 22.3333 368.531 23.4C366.771 24.4133 365.331 25.9067 364.211 27.88C363.144 29.8533 362.611 32.1733 362.611 34.84C362.611 37.5067 363.144 39.8267 364.211 41.8C365.331 43.7733 366.771 45.2933 368.531 46.36C370.344 47.3733 372.264 47.88 374.291 47.88C376.371 47.88 378.291 47.3467 380.051 46.28C381.864 45.2133 383.304 43.6933 384.371 41.72C385.491 39.7467 386.051 37.4 386.051 34.68Z" fill="#0DB8C2"/>
</svg>
